<svg height="32" viewBox="-32 -10 320 320" width="32" xmlns="http://www.w3.org/2000/svg"><path d="M101.827 91.515c0-.577-.191-1.153-.382-1.73-.191-.96-.096-1.92-.382-2.88-.095-.769-.095-1.633.096-2.402l.095-1.344c.286-1.73 1.146-3.362 2.482-4.515 3.914-1.92 8.305-2.113 12.41-.576 1.05.384 2.005 1.057 3.055 1.345 3.914 1.537 7.923 2.785 11.837 4.322 5.537 2.113 11.36 3.362 17.278 5.09 1.241.385 2.291.385 3.628.673 5.25 2.017 11.073 1.536 16.037-1.153.669-1.152.86-2.593.669-3.842h.19c.191.865.382 1.633.669 2.401a9.114 9.114 0 01-.573 6.34c-2.482 2.305-5.919 3.17-9.164 2.305a28.119 28.119 0 00-15.179.384c-.763.48-1.432.96-2.004 1.537 0 .096 0 .096.095.192.955.576 1.91 1.056 2.96 1.44 1.813 1.057 3.723 1.921 5.536 2.978 6.3 3.361 11.933 8.068 16.42 13.638 1.336 1.921 2.29 4.13 2.863 6.436.191.768 0 1.44.191 2.209a16.125 16.125 0 010 6.05c-.19.865 0 1.537-.19 2.402-.478 1.92-.764 4.034-1.337 5.762a74.764 74.764 0 01-2.005 6.051c-2.768 5.667-6.014 11.142-9.832 16.328-4.487 4.515-8.114 9.893-10.501 15.848-.477 2.21-.477 4.61.19 6.82a13.813 13.813 0 009.165 9.22c2.1.96 4.296 1.44 6.587 1.344 1.91-.384 4.105-.096 5.919-.48 1.145-.288 2.482-.192 3.818-.48 3.055-.768 6.11-1.057 8.973-1.921 4.678-1.249 9.165-2.977 13.46-5.09 8.115-4.226 15.083-10.373 20.43-17.865 4.581-6.915 7.922-14.503 10.118-22.571 1.146-3.746 1.432-7.78 2.387-11.718.477-1.825.286-3.746.668-5.57v-1.153c.382-1.633.095-3.65.477-5.379v-2.113c.286-2.4.382-4.898.191-7.3a56.68 56.68 0 00-3.914-19.88c-.668-1.634-.955-3.266-1.718-4.803a131.894 131.894 0 00-6.014-11.526c-6.683-10.277-15.179-19.209-25.202-26.22-3.246-2.305-6.682-4.418-10.119-6.531-3.437-2.114-6.778-3.554-10.31-5.38-5.632-2.784-11.36-5.282-17.183-7.395-1.718-.672-3.436-1.056-5.25-1.729-2.387-.864-4.869-1.536-7.446-2.4-1.146-.48-2.291-.865-3.437-1.057v-.192c1.432 0 2.864.096 4.296.384h1.241c.668.096 1.718.192 2.291.384.86.192 1.432 0 2.291.192 1.91.48 4.105.576 5.919 1.057.573.192.954 0 1.527.192 1.718.48 3.628.672 5.537 1.248 2.577.769 5.441 1.345 8.019 2.21 2.1.768 4.486 1.632 6.491 2.4 1.718.673 3.341 1.057 4.964 1.922 2.864 1.44 5.823 2.593 8.591 4.13 3.246 1.728 6.492 3.745 9.642 5.666 3.15 1.921 5.919 4.226 8.878 6.435.764.577 1.432 1.345 2.196 1.921 4.104 3.17 7.827 6.82 11.264 10.758 2.196 2.497 4.678 4.898 6.682 7.587a150.405 150.405 0 0111.837 18.057c2.864 5.475 5.442 11.141 7.542 17 .955 2.401 1.336 4.803 2.196 7.3.954 2.689 1.431 5.666 2.195 8.548.286 1.152.191 2.017.477 3.17.382 1.44.478 3.169.86 4.61.19.768 0 1.344.19 2.017.287 1.056.287 2.497.478 3.65v1.248c.095.672 0 1.44.19 2.209.383 2.305.478 4.514.383 6.82.19 2.497.095 4.994-.191 7.395-.191 1.056 0 2.305-.191 3.17v1.44c-.287 1.153-.096 2.497-.382 3.746-.573 2.401-.382 5.09-1.05 7.588-1.146 4.514-1.719 9.124-3.055 13.35-.19.576-.095 1.057-.382 1.633a142.45 142.45 0 01-9.45 23.051c-11.551 21.322-29.116 38.707-50.595 49.848-5.346 2.69-10.882 5.09-16.61 7.108-4.582 1.728-9.546 2.593-14.415 3.938-1.432.384-3.055.48-4.486.864-1.91.48-3.914.384-5.728.864-.86.192-1.432 0-2.291.192-1.337.289-3.15.193-4.582.48h-1.623c-1.05.193-2.482-.095-3.819.193-2.1.192-4.104.096-6.205-.384-1.718-.385-3.15-.192-4.677-.673-4.582-1.152-9.069-2.593-13.365-4.514-.763-.384-1.527-.48-2.195-.864-2.482-1.249-5.155-2.498-7.542-3.938-2.386-1.44-4.964-3.17-7.35-4.803-1.05-.768-2.005-1.632-3.055-2.4-1.05-.77-2.005-1.633-3.055-2.402l-.573-.672a12.447 12.447 0 01-1.718-1.44c-2.195-2.882-4.773-5.38-6.682-8.549-3.15-5.283-5.823-10.757-7.923-16.616-.669-1.921-1.05-3.746-1.719-5.763-1.145-3.554-1.813-7.491-2.768-11.237-.477-1.73-.477-3.458-.86-5.09-.667-2.594-.477-5.38-1.05-7.973v-5.666a44.682 44.682 0 011.719-14.215c4.773-13.543 15.083-24.396 28.256-29.967a76.442 76.442 0 019.165-3.746c1.05-.384 2.195-.48 3.245-1.056a48.636 48.636 0 007.637-4.802c2.578-1.73 4.487-4.226 5.442-7.204a10.443 10.443 0 00-4.487-9.412c-.764-.577-1.337-1.345-2.196-1.921-2.386-1.345-5.06-2.402-7.732-2.978-1.241-.192-2.482-.096-3.818.096-1.241.288-2.482 0-3.723.288-1.91.385-3.819.96-5.537 1.73a9.44 9.44 0 00-4.105 4.321c-.286.577-.286 1.249-.477 1.73-5.442-1.826-10.12-5.38-13.27-10.182-1.336-3.938-.19-8.356 3.055-10.95 1.91-2.016 4.105-3.745 6.396-5.282.764-.576 1.528-1.152 2.291-1.536 4.869-1.73 9.833-2.113 14.797-1.825zm20.142-65.792l.382.096s-.096.096-.191.096c-.668.192-1.432.384-2.1.384-1.528.48-3.246.672-4.773 1.249-4.105 1.152-8.21 2.497-12.22 4.13-1.24.576-2.577.768-3.818 1.344-3.436 1.73-6.968 3.074-10.31 4.803-5.154 2.785-10.214 5.763-14.987 9.124-3.818 2.69-7.255 5.859-10.978 8.644-.86.673-1.814 1.633-2.577 2.305l-.955 1.057c-.955.864-1.91 1.729-2.768 2.69-.955.864-1.814 1.728-2.578 2.689l-1.05.96c-.86 1.153-1.91 2.017-2.768 3.074-2.864 3.841-6.11 7.587-8.783 11.717-4.295 6.916-7.923 14.215-10.787 21.899-1.432 3.938-2.29 8.164-3.436 12.39-.573 2.017-.573 4.13-1.05 6.147l-.191 2.305a76.668 76.668 0 00-.573 9.412 35.402 35.402 0 00.286 7.78c.096 1.057.096 2.113.191 3.17.191.864.096 1.92.382 2.977.477 2.113.668 4.514 1.24 6.531.383 1.249.287 2.402.67 3.65 1.05 3.554 1.813 7.204 3.054 10.565a150.08 150.08 0 0017.183 33.232c2.864 4.13 6.014 7.876 8.973 11.814 1.05 1.345 2.291 2.593 3.341 3.938.382.576 1.146.96 1.432 1.537.191.864.287 1.632.382 2.497.477 2.017.668 4.226 1.337 6.243 1.432 4.898 3.532 9.7 6.014 14.119 2.195 3.553 4.582 6.819 7.064 10.085 1.432 1.824 3.246 3.361 4.677 5.282l2.005 2.017c1.337 1.345 2.673 2.882 4.105 4.13.668.48 1.24.96 1.718 1.537h-.19a8.758 8.758 0 00-2.674-1.345c-.763-.384-1.622-1.056-2.386-1.344-1.337-.673-2.768-1.057-4.105-1.73-5.346-2.592-10.5-5.57-15.465-8.836-14.319-9.508-26.347-21.898-35.511-36.401-4.582-7.204-8.305-14.887-11.36-22.955-1.432-3.938-2.482-8.068-3.819-12.198-.668-2.305-.954-4.61-1.527-6.916l-.19-1.44c-.478-1.825-.574-4.034-1.05-5.859-.192-.864 0-1.44-.192-2.305-.095-.672-.19-1.633-.382-2.21v-1.344c-.095-.576 0-1.44-.19-2.209-.192-.768.095-2.113-.192-3.17-.19-1.344-.286-2.689-.19-4.13-.096-2.016-.096-3.937.19-5.954v-2.21c.191-.96.096-2.305.382-3.265l.191-2.977c.573-2.498.573-5.283 1.241-7.684.191-.96.096-1.633.382-2.497.382-1.633.764-3.458 1.241-4.995.286-1.056.286-2.017.668-3.17.669-2.016 1.146-4.321 1.91-6.434.572-1.633 1.336-3.458 1.909-4.995s.859-2.881 1.527-4.226c.668-1.345 1.337-3.073 2.005-4.61 2.195-4.418 4.486-8.836 7.064-12.966 9.737-15.464 22.72-28.718 38.089-38.515 6.969-4.226 14.224-7.972 21.765-11.045.955-.385 1.718-.48 2.673-.865 3.055-1.152 6.3-2.113 9.546-3.073 3.532-1.057 7.35-1.441 10.978-2.401 1.146-.289 2.291-.289 3.246-.48 1.718-.385 3.436-.193 5.06-.577a74.976 74.976 0 001.813-.288zm-7.446 60.797a5.296 5.296 0 00-1.623.865c-.573 1.344-.573 2.881-.095 4.322 1.336.192 2.768.192 4.105.096h8.686l.096-.288a10.833 10.833 0 01-2.196-1.441 20.775 20.775 0 00-8.973-3.554z" fill="#fff"/></svg>