<svg height="32" viewBox="0 0 45.025 44.217" width="32" xmlns="http://www.w3.org/2000/svg" xmlns:svg="http://www.w3.org/2000/svg"><g
     transform="matrix(0.13871016,0,0,0.13871016,1.6658507,8.5440648)"><path
       d="m 299.2,3.87 a 4.36,4.36 0 0 0 -2.92,-1 c -2.9,0 -6.65,2 -8.66,3 -0.35,0.18 -0.62,0.33 -0.81,0.41 A 27.32,27.32 0 0 1 276,9.06 c -3.86,0.12 -7.19,0.35 -11.5,0.79 -25.66,2.64 -37.05,22.28 -48.06,41.27 -6,10.33 -12.18,21 -20.67,29.28 a 55,55 0 0 1 -5.59,4.75 c -8.78,6.54 -19.81,11.17 -28.43,14.47 -8.26,3.15 -17.28,6 -26,8.74 -8,2.51 -15.51,4.88 -22.44,7.46 -3.13,1.16 -5.79,2.05 -8.13,2.83 -6.31,2.1 -10.87,3.62 -17.51,8.16 -2.59,1.78 -5.19,3.7 -7,5.14 a 73.49,73.49 0 0 0 -13.87,14.63 87.05,87.05 0 0 1 -11.6,14 c -1.4,1.37 -3.89,2 -7.62,2 -4.37,0 -9.67,-0.9 -15.28,-1.86 -5.77,-1 -11.75,-2 -16.87,-2 -4.17,0 -7.35,0.68 -9.74,2.06 0,0 -4,2.34 -5.69,5.36 l 1.66,0.76 a 34.33,34.33 0 0 1 7.1,5.1 35.39,35.39 0 0 0 7.37,5.25 6.61,6.61 0 0 1 2.27,1.51 c -0.7,1 -1.73,2.35 -2.8,3.76 -5.92,7.74 -9.37,12.63 -7.39,15.29 a 6.15,6.15 0 0 0 3,0.7 c 12.9,0 19.82,-3.35 28.59,-7.59 2.54,-1.23 5.16,-2.5 8.16,-3.8 5.12,-2.22 10.64,-5.77 16.48,-9.52 7.74,-5 15.74,-10.12 23.49,-12.6 a 63.71,63.71 0 0 1 19.71,-2.77 c 8.23,0 16.83,1.1 25.15,2.16 6.21,0.8 12.63,1.62 18.93,2 2.45,0.15 4.72,0.22 6.92,0.22 a 77.2,77.2 0 0 0 8.83,-0.47 l 0.7,-0.24 c 4.42,-2.72 6.49,-8.55 8.5,-14.19 1.29,-3.62 2.37,-6.88 4.05,-9 a 2.1,2.1 0 0 1 0.34,-0.28 0.41,0.41 0 0 1 0.5,0.08 c 0,0 0,0 0,0.16 -1.06,22.05 -9.9,36.05 -18.88,48.49 l -6,6.43 c 0,0 8.39,0 13.16,-1.84 17.42,-5.22 30.58,-16.69 40.15,-35 a 148.57,148.57 0 0 0 6.32,-14.45 c 0.16,-0.41 1.68,-1.16 1.53,1 0,0.63 -0.09,1.33 -0.14,2 v 0 c 0,0.44 -0.06,0.88 -0.08,1.32 -0.25,3 -1,9.57 -1,9.57 l 5.38,-2.88 c 13,-8.23 23,-24.74 30.56,-50.48 3.16,-10.71 5.47,-21.36 7.51,-30.75 2.44,-11.24 4.55,-20.94 7,-24.69 3.78,-5.88 9.55,-9.86 15.13,-13.72 l 2.28,-1.58 c 7,-4.93 14,-10.62 15.54,-21.22 v -0.24 c 1.2,-7.82 0.25,-9.83 -0.82,-10.76 z"
       transform="translate(0,-2.9)"
       style="fill:#ffffff" />
  </g>
</svg>

