<svg xmlns="http://www.w3.org/2000/svg" width="32" height="32" viewBox="0 0 32 32"><path fill="#fff" d="M18.82 15.507l-4.709 1.536-4.094 1.808-1.147.303a31.428 31.428 0 01-1.887 1.648 7.302 7.302 0 00-.934.926c-.325.405-.58.837-.689 1.168-.197.597-.101 1.202.279 1.761.485.713 1.449 1.438 2.572 1.931.572.252 1.538.576 2.263.759 1.207.305 3.54.636 4.824.685.261.01.607.009.623-.002.028-.019.228-.397.46-.871.79-1.613 1.361-3.125 1.668-4.416.186-.782.331-1.825.425-3.061.026-.346.036-1.501.016-1.894a13.326 13.326 0 00-.179-1.67.43.43 0 01-.011-.147c.013-.011.058-.025.636-.194l-.115-.27zm-1.076.631c.043 0 .157 1.091.186 1.784.006.147.005.241-.004.241-.028 0-.603-.338-1.011-.594a28.29 28.29 0 01-1.139-.757c-.034-.027-.03-.028.261-.128.495-.171 1.669-.547 1.706-.547zm-2.399.788c.03 0 .113.046.309.168.735.46 1.729 1.014 2.155 1.2.132.058.147.035-.157.242-.649.441-1.455.874-2.446 1.314-.173.077-.319.139-.325.139s.013-.088.042-.195c.24-.887.375-1.783.379-2.502.002-.355.002-.357.036-.366l.006-.001zm-.493.188c.021.021.006.817-.02 1.034a8.973 8.973 0 01-.408 1.799c-.014.016-.501-.458-.663-.646a4.828 4.828 0 01-.655-.953c-.081-.159-.21-.475-.198-.483.055-.04 1.93-.765 1.944-.751zm-2.326.917c.004 0 .008.002.01.004a.87.87 0 01.055.129c.113.308.368.766.59 1.058.242.32.557.66.821.886l.175.15c.023.02.03.017-.55.237a47.99 47.99 0 01-2.247.783l-.602.195c-.032.012-.022-.008.071-.154.418-.653 1.051-1.929 1.405-2.832.061-.157.12-.313.13-.349.015-.052.031-.069.079-.091a.136.136 0 01.063-.016zm-.713.294c.009.008-.171.389-.349.736a28.26 28.26 0 01-1.228 2.14c-.087.139-.167.267-.178.282-.018.026-.025.017-.08-.092a3.22 3.22 0 01-.274-.824 3.325 3.325 0 01.019-1.061c.046-.222.044-.217.149-.271.453-.232 1.926-.922 1.941-.909zm6.139.249v.151a19.566 19.566 0 01-.209 2.674c-.022.139-.04.254-.042.255s-.102-.028-.223-.066a9.194 9.194 0 01-1.636-.7c-.346-.19-.847-.497-.833-.511.004-.004.151-.082.328-.174a20.896 20.896 0 001.947-1.142c.218-.145.544-.381.616-.445l.051-.045zm-8.827 1.053c.014-.001.011.027-.012.158a3.815 3.815 0 00-.04.382c-.029.52.056.904.314 1.43.072.146.128.268.125.27-.026.022-2.38.71-3.12.913l-.427.118c-.026.008-.028.002-.019-.058.081-.522.479-1.207 1.036-1.783.37-.383.666-.609 1.17-.897.362-.206.923-.516.964-.532l.008-.001zm5.552.994c.002-.003.089.044.194.104.76.44 1.821.852 2.726 1.059l.082.019-.112.063c-.473.262-2.029.91-3.618 1.506l-.503.19c-.045.018-.08.03-.08.026s.066-.13.146-.28c.446-.834.892-1.848 1.12-2.552.023-.072.044-.132.046-.135zm-.566.185a1.39 1.39 0 01-.062.165c-.31.75-.716 1.568-1.235 2.487-.132.234-.243.425-.247.424s-.111-.064-.238-.142c-.755-.462-1.423-1.031-1.861-1.584l-.063-.078.325-.089a23.093 23.093 0 003.124-1.08c.139-.06.254-.107.256-.104zm3.516 1.228c.002 0 .002.002.002.003 0 .079-.18.811-.329 1.341-.125.445-.231.792-.426 1.408-.086.272-.16.494-.165.493l-.046-.009a14.642 14.642 0 01-2.892-.815 8.216 8.216 0 01-.626-.277 4.68 4.68 0 01.476-.224c1.62-.707 3.299-1.512 3.873-1.857a.413.413 0 01.132-.063zm-8.116.278c.009.008-.445.657-1.078 1.543-.22.308-.479.671-.574.807s-.24.35-.322.477l-.15.231-.159-.134a6.394 6.394 0 01-.663-.675c-.306-.381-.513-.782-.594-1.15-.038-.17-.039-.256-.003-.267.052-.016 1.002-.239 1.894-.446.495-.115 1.068-.249 1.273-.299s.375-.088.377-.086zm.456.174l.115.128a6.641 6.641 0 001.67 1.365c.112.065.198.121.191.126a293.463 293.463 0 01-4.24 1.498.713.713 0 01-.071-.047l-.066-.047.103-.148c.334-.483.753-1.014 1.67-2.118l.629-.757zm2.84 2.03c.003-.003.161.053.354.125.464.173.827.286 1.32.41.605.151 1.478.303 1.996.346.079.007.12.016.107.024-.024.015-.548.19-.933.311-.611.192-2.48.744-4.004 1.183l-.537.153c-.034.007-.153-.024-.153-.04 0-.008.085-.116.189-.24a21.733 21.733 0 001.446-1.944l.216-.328zm-.629.018c.005.005-.248.409-.692 1.108-.188.295-.4.631-.473.747s-.18.291-.237.391l-.104.182-.053-.014a29.485 29.485 0 01-1.265-.447 8.061 8.061 0 01-.828-.381c-.283-.153-.642-.38-.614-.389l1.081-.296c1.56-.425 2.423-.669 2.989-.846.106-.033.194-.058.196-.056zm4.431 1.039h.005c.015.037-.563 1.636-.774 2.143-.047.114-.065.141-.089.14-.06-.003-.897-.12-1.404-.197-.887-.135-2.373-.394-2.748-.48l-.087-.019.532-.12c1.14-.257 1.687-.395 2.242-.564.7-.214 1.394-.482 2.094-.807.111-.052.205-.091.229-.096zm-2.642-21.04c-.079-.009-1.343.446-2.155.776-1.1.447-1.954.875-2.481 1.245-.196.138-.443.385-.479.48a.332.332 0 00-.02.12l.478.451 1.134.362 2.702.483 3.088.531.031-.265a.236.236 0 00-.028-.004l-.407-.064-.083-.145a27.067 27.067 0 01-1.153-2.277 11.936 11.936 0 01-.52-1.434c-.066-.238-.073-.253-.11-.258zm-.059.183h.005c.002.003.017.102.031.221.061.497.172.98.346 1.499.131.391.133.368-.023.325-.363-.101-1.99-.381-3.167-.544a9.002 9.002 0 01-.35-.052c-.015-.015.849-.468 1.232-.646.491-.229 1.829-.785 1.926-.803zm-3.43 1.593l.138.047c.756.257 2.65.619 3.697.706.118.01.217.02.22.023s-.097.056-.223.119c-.505.253-1.061.561-1.446.802-.113.071-.216.128-.23.127s-.088-.013-.166-.026l-.142-.023-.357-.347a190.11 190.11 0 00-1.307-1.255l-.184-.173zm-.14.112l.5.625c.275.344.552.685.613.758s.109.136.106.138c-.014.01-.725-.128-1.102-.215a8.243 8.243 0 01-.786-.208l-.195-.063.001-.048c.002-.24.305-.594.818-.956l.046-.031zm4.262.851c.015.001.031.032.075.129.121.266.499.987.591 1.126.03.046.078.049-.424-.032-1.205-.195-1.595-.26-1.595-.267 0-.005.036-.028.08-.053.373-.208.75-.469 1.085-.751l.171-.144c.006-.005.011-.008.016-.007zm-5.726-.286s-.078.124-.004.308c.046.114.183.251.334.396 0 0 1.582 1.543 1.775 1.767.876 1.011 1.257 2.007 1.292 3.382.023.882-.148 1.658-.561 2.559-.741 1.615-2.301 3.397-4.711 5.378l.354-.117c.227-.17.536-.352 1.265-.751 1.677-.918 3.561-1.762 5.875-2.631 3.329-1.251 8.806-2.719 11.922-3.196l.325-.05-.05-.078a10.567 10.567 0 00-.713-1.005c-.683-.845-1.511-1.535-2.525-2.102-1.393-.78-3.2-1.386-5.484-1.84a66.623 66.623 0 00-2.147-.368c-1.63-.254-2.681-.426-3.843-.628-.416-.072-1.038-.177-1.451-.266a8.897 8.897 0 01-.941-.253c-.262-.103-.632-.203-.71-.504zm.917.89a1.03 1.03 0 01.134.041c.133.045.31.098.515.156.144.04.302.082.469.125.214.055.391.102.393.104.024.027.383 1.174.506 1.614.047.168.082.308.079.311s-.043-.059-.088-.137c-.416-.731-1.074-1.475-1.836-2.073a3.043 3.043 0 01-.172-.141zm1.752.484c.018-.001.097.012.191.033.606.134 1.689.343 2.385.46.116.02.211.041.211.047s-.043.034-.096.06c-.117.059-.59.342-.748.448-.395.264-.75.547-1.008.804-.104.103-.191.188-.194.188s-.021-.06-.04-.134a11.895 11.895 0 00-.636-1.742 1.71 1.71 0 01-.07-.162l.004-.002zm3.083.586c.02.007.059.127.127.395a5.94 5.94 0 01.171 1.629 3.3 3.3 0 01-.021.308l-.011.037-.184-.06a46.777 46.777 0 00-1.53-.451 6.934 6.934 0 01-.549-.165c0-.022.44-.462.629-.629.361-.32 1.334-1.076 1.368-1.064zm.245.035c.011-.01 1.473.243 2.137.37.495.095 1.212.245 1.255.263.021.009-.053.049-.291.156-.941.424-1.638.803-2.331 1.267-.183.122-.334.222-.337.222s-.006-.102-.006-.226a4.998 4.998 0 00-.383-1.934.599.599 0 01-.044-.118zm3.78.748c.011.011-.037.3-.078.47-.129.53-.472 1.317-.895 2.056-.075.13-.141.239-.149.241s-.104-.048-.214-.112a11.354 11.354 0 00-1.396-.683 4.282 4.282 0 01-.272-.118c-.023-.022 1.12-.779 1.726-1.142.485-.291 1.265-.726 1.279-.712zm.27.042c.033 0 .681.177 1.017.277.835.25 1.799.602 2.423.886l.26.118-.183.042c-1.529.351-2.84.757-4.102 1.269-.105.043-.196.078-.203.078s.027-.081.074-.18c.379-.806.625-1.652.688-2.37.006-.065.018-.118.026-.118zm-6.445 1.482c.01-.01.504.105.773.181.405.114 1.266.402 1.266.424 0 .004-.095.087-.211.184-.465.389-.914.797-1.452 1.316-.159.154-.295.279-.302.279s-.01-.023-.006-.05c.081-.598.064-1.366-.049-2.147a1.21 1.21 0 01-.019-.187zm10.392.009c.007.007-.229.377-.376.588-.215.307-.526.711-1.235 1.603l-.934 1.177c-.142.179-.26.326-.264.326s-.049-.064-.101-.142a7.436 7.436 0 00-1.44-1.592c-.106-.088-.225-.184-.264-.214s-.072-.057-.072-.061c0-.01.604-.269 1.065-.457.803-.327 1.9-.718 2.721-.97.433-.133.893-.265.9-.258zm.273.072a.908.908 0 01.203.098 12.033 12.033 0 013.025 2.458c-.002.001-.162.014-.356.028-1.499.113-3.415.431-5.259.875-.125.03-.234.055-.241.055s.13-.138.305-.305c1.083-1.041 1.578-1.699 2.159-2.874.087-.175.16-.326.163-.335l.002-.001zm-7.921.812c.049.011.511.226.86.401.319.16.802.417.826.439.003.003-.167.092-.378.197-.669.335-1.242.65-1.84 1.016-.171.104-.313.19-.318.19-.015 0-.009-.013.086-.188.319-.583.575-1.28.723-1.96.013-.061.029-.098.04-.095zm-.466.083c.01.01-.11.45-.186.685a8.917 8.917 0 01-.818 1.771l-.088.144-.2-.193a2.642 2.642 0 00-.662-.489.95.95 0 01-.172-.101c-.001-.029.607-.582 1.075-.978.335-.284 1.042-.849 1.05-.84zm2.829 1.163l.174.113a13.8 13.8 0 011.229.906c.201.168.593.518.673.603l.043.045-.288.08c-1.63.452-2.89.855-4.359 1.395-.163.06-.304.11-.314.11-.02 0-.04.019.326-.319.94-.865 1.77-1.818 2.391-2.745l.125-.188zm-.743.187c.008.008-.482.695-.773 1.083a47.132 47.132 0 01-1.396 1.744c-.178.211-.331.386-.34.389s-.015-.049-.015-.13a2.993 2.993 0 00-.302-1.281c-.081-.165-.095-.204-.078-.22.067-.061 1.104-.652 1.758-1.002.449-.241 1.138-.591 1.147-.582zm-4.496 1.101a3.933 3.933 0 01.796.507c.007.006-.086.082-.207.169-.337.243-.851.631-1.148.868-.314.25-.324.257-.289.203a6.43 6.43 0 00.477-.823 6.55 6.55 0 00.297-.744.68.68 0 01.075-.18zm1.198.94c.016-.002.039.028.136.172.203.303.358.707.398 1.037l.008.071-.486.188c-.873.339-1.677.673-2.219.921-.152.07-.42.198-.595.285s-.318.156-.318.153c0-.004.11-.086.244-.184 1.065-.773 1.984-1.62 2.676-2.467a2.23 2.23 0 01.15-.174c.002-.002.004-.002.007-.002zm-.553.137c.014.014-.393.475-.667.754a11.807 11.807 0 01-2.21 1.784l-.214.135c-.023.014.007-.021.378-.424.233-.254.412-.465.614-.728.133-.173.159-.198.355-.339.527-.38 1.731-1.196 1.745-1.182z"/></svg>