<svg xmlns="http://www.w3.org/2000/svg" width="32" height="32" viewBox="0 0 32 32"><path fill="#fff" d="m 6.078125,4.9941406 c -0.1639735,-0.00447 -0.3216157,0.0024 -0.4707031,0.021484 -0.2951151,0.037782 -0.5671845,0.115446 -0.7734375,0.3300781 -0.00214,0.00223 -0.00569,0.00165 -0.00781,0.00391 l -0.1425781,0.1523437 0.054687,0.1640625 c -0.1878904,0.3027014 -0.3798969,0.6173092 -0.2988281,1 0.1070359,0.50527 0.413466,1.0543396 0.9160157,1.8007813 0.4845606,0.7258869 1.0784433,1.9198388 1.2851562,2.5390618 0.239461,0.745437 0.684354,1.695699 1.0253906,2.222657 l 0.00391,0.0059 0.00391,0.0078 c 0.2751417,0.385392 0.3669274,0.544993 0.3847657,0.777343 0.017838,0.232351 -0.0595,0.61231 -0.2421876,1.328125 v 0.002 c -0.2372825,0.947031 -0.3285163,2.081868 -0.203125,2.871094 0.094223,0.660674 0.3879069,1.406852 0.7402344,2.041016 0.1761638,0.317081 0.36811,0.604221 0.5644532,0.835937 0.196343,0.231717 0.3844737,0.419323 0.6503906,0.507813 0.2394086,0.07965 0.48433,0.02515 0.681641,-0.07813 0.197311,-0.103261 0.367297,-0.255757 0.515625,-0.4375 0.247509,-0.303267 0.375922,-0.715651 0.443359,-1.13086 0.312633,0.451356 0.716042,0.974683 1.150391,1.451172 0.258921,0.284042 0.505245,0.535026 0.707031,0.716797 0.100893,0.09089 0.188212,0.164087 0.279297,0.222656 0.04554,0.02928 0.08853,0.05735 0.164063,0.08008 0.03776,0.01136 0.08672,0.02313 0.15625,0.01758 0.06953,-0.0056 0.16696,-0.04001 0.236328,-0.109375 0.104778,-0.104779 0.105787,-0.202407 0.107422,-0.25586 0.0016,-0.05345 -0.0034,-0.08508 -0.0098,-0.115234 -0.01271,-0.0603 -0.0314,-0.10924 -0.05273,-0.164063 -0.04267,-0.109644 -0.102313,-0.239355 -0.181641,-0.392578 -0.156941,-0.303133 -0.385835,-0.694291 -0.65625,-1.107422 l -0.0078,-0.01172 c -0.49924,-0.832614 -1.089238,-1.935498 -1.296874,-2.404297 -0.07539,-0.204644 -0.14173,-0.371454 -0.210938,-0.507813 -0.07208,-0.142023 -0.141836,-0.267179 -0.298828,-0.365234 -0.156993,-0.09805 -0.401292,-0.07957 -0.535156,-0.0059 -0.129517,0.07135 -0.215873,0.16207 -0.3125,0.265626 l -0.002,0.002 c -0.178814,0.179523 -0.304349,0.418088 -0.423775,0.70695 -0.1198123,0.289801 -0.2184669,0.622727 -0.2656246,0.955078 v -0.0078 c -0.053196,0.318705 -0.1235477,0.558039 -0.1894532,0.703124 -0.03155,0.06945 -0.017332,0.04894 -0.035156,0.07031 -0.059058,-0.07941 -0.1440373,-0.221374 -0.2265625,-0.462891 -0.3555601,-1.040576 -0.3634626,-3.006442 0.00586,-4.271484 l -0.00195,0.002 C 9.4530713,14.493663 9.5358578,14.150796 9.4941406,13.798828 9.4524236,13.44686 9.2862593,13.149662 9.0371094,12.783203 l -0.00391,-0.0059 -0.00195,-0.0039 c -0.2540265,-0.34659 -0.7509046,-1.3753 -0.9921875,-2.152344 l -0.00195,-0.002 v -0.002 C 7.7670324,9.7772873 7.187414,8.608086 6.6640625,7.9257812 L 6.65625,7.9160156 C 6.391117,7.5414794 6.1951622,7.2288741 6.0722656,6.9882812 5.9565787,6.7618028 5.9261762,6.614241 5.921875,6.5566406 c 0.055523,-0.011445 0.2014164,-0.02208 0.4453125,0.025391 l 0.00391,0.00195 h 0.00195 c 0.3823971,0.06786 1.1245623,0.3989249 1.5273437,0.6757812 0.5046205,0.3670979 1.2252418,0.6269532 1.8046875,0.6269532 0.5627453,0 1.4676373,0.3023625 2.4140633,0.8320312 0.946425,0.5296687 1.948217,1.2763429 2.783203,2.1113278 1.3013,1.30032 1.940153,2.312369 3.375,5.208984 h -0.002 c 0.846522,1.721066 1.301336,2.631979 1.71289,3.201172 0.411555,0.569195 0.834435,0.77938 1.371094,0.953125 0.565628,0.193591 1.522024,0.688369 2.308594,1.167969 0.394213,0.240367 0.750009,0.478363 0.996093,0.667969 0.01853,0.01428 0.02376,0.02143 0.04102,0.03516 -0.231181,0.05105 -0.524907,0.100845 -0.865234,0.125 h -0.0078 l -0.0059,0.002 c -0.538859,0.05758 -0.961929,0.124947 -1.294922,0.22461 -0.332993,0.09966 -0.613075,0.226535 -0.757812,0.515625 -0.144737,0.289089 -0.04155,0.616281 0.132812,0.878906 0.174364,0.262625 0.437528,0.530433 0.792969,0.849609 l 0.002,0.002 0.002,0.002 c 0.67577,0.587266 1.882116,1.456131 2.792969,1.957032 l 1.578125,0.902344 0.449219,-0.519532 -0.736329,-0.935547 -0.0039,-0.0039 c -0.460666,-0.553235 -1.328576,-1.338062 -2.056641,-1.792969 -0.326295,-0.203874 -0.620757,-0.414748 -0.824218,-0.582031 -0.0088,-0.0072 -0.01108,-0.01051 -0.01953,-0.01758 0.15765,-0.0519 0.341074,-0.106373 0.566407,-0.138672 h 0.0059 l 0.0059,-0.002 c 0.79376,-0.141761 1.305142,-0.244844 1.658203,-0.365234 0.176529,-0.0602 0.318959,-0.122087 0.443359,-0.228516 0.1244,-0.106429 0.216797,-0.291286 0.216797,-0.455078 0,-0.24925 -0.10332,-0.33131 -0.201172,-0.453125 -0.09785,-0.121816 -0.223565,-0.248913 -0.375,-0.390625 C 25.900142,21.355146 25.494666,21.024264 25.046875,20.6875 24.153287,20.015472 23.111052,19.329241 22.375,19.005859 l -0.002,-0.002 c -0.001,-4.44e-4 -0.0029,-0.0015 -0.0039,-0.002 -0.559816,-0.259784 -0.794998,-0.389988 -1.126953,-0.849609 -0.332972,-0.46103 -0.74586,-1.282524 -1.490235,-2.8125 l -0.002,-0.0059 C 18.421795,12.5099 17.833825,11.642417 16.130859,9.9394531 13.938433,7.7470261 12.351394,6.7493968 10.349609,6.4550781 9.7624446,6.350896 8.8527328,5.9945904 8.5566406,5.7832031 8.0170909,5.3776585 7.2767727,5.1371796 6.5859375,5.0390625 6.4124044,5.0144162 6.2420985,4.9986101 6.078125,4.9941406 Z"/></svg>
