<svg xmlns="http://www.w3.org/2000/svg" viewBox="0 0 1000 1000"><path fill="#fff" d="M489.6 184.6c230.2-2.7 423.6 57.3 431.7 133.7 8.1 76.5-172.3 140.8-402.5 143.4C288.6 464.5 95.1 404.5 87.1 328 79 251.6 259.3 187.3 489.6 184.6z"/><path fill="#fff" d="M87.1 501.5c-.4-3.3-.4-6.6 0-9.8V340.2h.2c-.4 3.2-.3 6.4 0 9.7 8 76.5 201.5 136.4 431.7 133.8 220.3-2.6 394.9-61.5 402.5-133.6v151.5h-.3c-7.4 72.1-182.1 131.2-402.5 133.8C288.6 637.9 95.1 578 87.1 501.5z"/><path fill="#fff" d="M87.1 678.8c-.4-3.3-.4-6.6 0-9.8V517.5h.2c-.4 3.2-.3 6.5 0 9.7 8 76.5 201.5 136.4 431.7 133.8 220.3-2.6 394.9-61.6 402.5-133.6v151.4h-.3c-7.3 72.2-182 131.2-402.4 133.8-230.2 2.6-423.6-57.3-431.7-133.8z"/><path fill="#fff" d="M87.1 856.1c-.4-3.3-.4-6.6 0-9.8V694.8h.2c-.4 3.2-.3 6.5 0 9.7 8 76.5 201.5 136.4 431.7 133.8 220.3-2.6 394.9-61.5 402.5-133.6v151.5h-.3c-7.4 72.2-182.1 131.2-402.5 133.8-230.1 2.6-423.5-57.4-431.6-133.9zM700.7 10H683v116.2h83.1l11.3-19h-76.6V10zm-242.4 5.8l-64.8 110.5h21.4l19.5-33.4h41.8l11-19h-41.8l22.8-38.3 53.3 90.6H543L477.6 15.5c-4-7.2-14.7-7.2-19.3.3zM584 29h74.3l11-18.9h-85.8c-29.9 0-49.6 26-49.6 58.1s19.7 58.1 49.6 58.1l72.6-.1 11.4-18.8H584c-20.1 0-31.9-17.5-31.9-39.2 0-21.7 11.7-39.2 31.9-39.2zM204.6 10H128c-29.9 0-49.5 26-49.5 58.1s19.7 58.1 49.5 58.1h76.6c29.9 0 49.5-26 49.5-58.1S234.4 10 204.6 10zm0 97.3H128c-20.1 0-31.9-17.5-31.9-39.2S107.8 29 128 29h76.6c20.1 0 31.9 17.5 31.9 39.2s-11.8 39.1-31.9 39.1zm592.2-30h93.6l11.3-19H796.8c3-16.8 14.1-29.4 31.1-29.4h74.4l11-18.9h-85.8C797.6 10 778 36 778 68.1s19.7 58.1 49.5 58.1l72.6-.1 11.4-18.8H828c-17.3 0-28.3-12.8-31.2-30zM354.9 79c17.7 0 32.1-15.4 32.1-34.5 0-19-14.4-34.5-32.1-34.5h-90.2v116.2h19.8V29h70.3c8 0 14.5 6.9 14.5 15.6 0 8.6-6.5 15.6-14.5 15.6h-56.4l63.6 66h25.6l-45.5-47 12.8-.2z"/></svg>