<svg xmlns="http://www.w3.org/2000/svg" width="32" height="32" viewBox="0 0 34 32"><path fill="#fff" d="M21.576 3.59c-1.115-.994-2.465-.595-3.798.588a9.407 9.407 0 00-.591.579c-2.279 2.418-4.395 6.897-5.053 10.318.256.519.456 1.182.588 1.688.034.13.064.252.089.355.058.245.089.405.089.405s-.02-.077-.104-.321l-.055-.158a1.44 1.44 0 00-.035-.087c-.149-.346-.56-1.075-.741-1.393-.155.457-.292.884-.406 1.271.523.956.841 2.595.841 2.595s-.028-.106-.159-.477c-.117-.328-.697-1.345-.835-1.583-.235.869-.329 1.455-.244 1.598.164.277.32.754.457 1.282.309 1.189.524 2.637.524 2.637l.019.244c-.043.999-.017 2.034.06 2.97.103 1.239.295 2.303.541 2.873l.167-.091c-.361-1.122-.508-2.593-.444-4.289.097-2.593.694-5.719 1.796-8.978 1.863-4.919 4.447-8.866 6.811-10.751-2.155 1.947-5.073 8.248-5.946 10.581-.978 2.613-1.671 5.065-2.088 7.414.721-2.202 3.05-3.149 3.05-3.149s1.143-1.409 2.478-3.422c-.8.182-2.113.495-2.553.68-.649.272-.824.365-.824.365s2.102-1.28 3.905-1.86c2.48-3.906 5.182-9.456 2.461-11.884z"/></svg>