<svg xmlns="http://www.w3.org/2000/svg" viewBox="0 0 210 210" height="210mm" width="210mm"><path d="M180.088 107.51a72.967 69.474 0 01-72.858 69.473 72.967 69.474 0 01-73.075-69.266 72.967 69.474 0 0172.639-69.68 72.967 69.474 0 0173.292 69.056" fill="#e36929"/><path d="M82.985 102.48a17.02 21.735 21.455 01-23.767 14.012 17.02 21.735 21.455 01-7.938-26.403 17.02 21.735 21.455 0123.744-14.091 17.02 21.735 21.455 018.009 26.36M157.83 118.562a17.472 11.51-52.488 01-1.695 20.917 17.472 11.51-52.488 01-19.742 6.678 17.472 11.51-52.488 011.635-20.897 17.472 11.51-52.488 0119.747-6.74" fill="#f8d163"/><path d="M72.979 98.717a9.143 10.562 0 01-9.13 10.562 9.143 10.562 0 01-9.156-10.53 9.143 10.562 0 019.102-10.594 9.143 10.562 0 019.184 10.499M155.659 130.732a6.21 6.986 0 01-6.2 6.987 6.21 6.986 0 01-6.22-6.966 6.21 6.986 0 016.182-7.007 6.21 6.986 0 016.238 6.945" fill="#fbfcf7"/></svg>