<?xml version="1.0" encoding="utf-8"?>
<!-- Generator: Adobe Illustrator 20.1.0, SVG Export Plug-In . SVG Version: 6.00 Build 0)  -->
<svg version="1.1" id="Layer_1" xmlns="http://www.w3.org/2000/svg" xmlns:xlink="http://www.w3.org/1999/xlink" x="0px" y="0px"
	 viewBox="0 0 1024 1024" style="enable-background:new 0 0 1024 1024;" xml:space="preserve">
<style type="text/css">
	.st0{fill:url(#SVGID_1_);}
	.st1{fill:url(#XMLID_15_);}
	.st2{opacity:0.5;fill:#FFBC00;}
	.st3{fill:#FFBC00;}
	.st4{fill:url(#XMLID_16_);}
	.st5{fill:url(#XMLID_17_);}
	.st6{fill:url(#XMLID_18_);}
	.st7{fill:url(#XMLID_19_);}
	.st8{fill:url(#XMLID_20_);}
	.st9{fill:url(#XMLID_21_);}
	.st10{opacity:0.46;}
	.st11{fill:url(#XMLID_23_);}
	.st12{fill:url(#XMLID_24_);}
	.st13{fill:url(#XMLID_25_);}
	.st14{fill:url(#XMLID_27_);}
	.st15{fill:url(#XMLID_28_);}
	.st16{fill:url(#XMLID_29_);}
	.st17{fill:url(#XMLID_30_);}
	.st18{opacity:0.75;}
	.st19{opacity:0.44;clip-path:url(#XMLID_31_);}
	.st20{fill:url(#XMLID_32_);}
	.st21{fill:url(#XMLID_33_);}
	.st22{fill:url(#XMLID_34_);}
	.st23{fill:url(#XMLID_35_);}
	.st24{fill:url(#XMLID_37_);}
	.st25{fill:url(#XMLID_38_);}
	.st26{opacity:0.43;fill:#FFBC00;}
	.st27{opacity:0.58;fill:#FFBC00;}
	.st28{fill:#FFBE06;}
	.st29{fill:none;}
	.st30{fill:url(#XMLID_42_);}
	.st31{fill:url(#XMLID_43_);}
	.st32{fill:url(#XMLID_44_);}
	.st33{fill:url(#XMLID_45_);}
	.st34{fill:url(#XMLID_46_);}
	.st35{fill:url(#SVGID_4_);}
	.st36{fill:url(#SVGID_5_);}
	.st37{fill:url(#SVGID_6_);}
	.st38{fill:url(#SVGID_7_);}
	.st39{fill:url(#SVGID_8_);}
	.st40{fill:url(#SVGID_11_);}
	.st41{fill:url(#SVGID_12_);}
	.st42{fill:url(#SVGID_13_);}
	.st43{fill:url(#SVGID_14_);}
	.st44{fill:#C68D00;}
	.st45{fill:#CE000F;}
</style>
<g>
	<radialGradient id="XMLID_15_" cx="358.2692" cy="227.2655" r="830.0055" gradientUnits="userSpaceOnUse">
		<stop  offset="0" style="stop-color:#F6971E"/>
		<stop  offset="0.6338" style="stop-color:#F4592D"/>
		<stop  offset="0.7025" style="stop-color:#EF4F29"/>
		<stop  offset="0.8178" style="stop-color:#E1351D"/>
		<stop  offset="0.9647" style="stop-color:#CA0B0B"/>
		<stop  offset="1" style="stop-color:#C40006"/>
	</radialGradient>
	<circle id="XMLID_124_" class="st1" cx="510.3" cy="511.9" r="502.8"/>
	<linearGradient id="XMLID_16_" gradientUnits="userSpaceOnUse" x1="505.4734" y1="-52.674" x2="505.4734" y2="155.1105">
		<stop  offset="0" style="stop-color:#FFFFFF;stop-opacity:0.4"/>
		<stop  offset="1" style="stop-color:#FFFFFF;stop-opacity:0"/>
	</linearGradient>
	<path id="XMLID_59_" class="st4" d="M861.5,198.8c0,87.2-170.7-23.4-344.5-23.4S149.4,294.2,149.4,207S336.5,9,510.3,9
		S861.5,111.7,861.5,198.8z"/>
	
		<linearGradient id="XMLID_17_" gradientUnits="userSpaceOnUse" x1="503.3253" y1="-583.7885" x2="503.3253" y2="-376.4571" gradientTransform="matrix(-1 0 0 -1 1017 456.5313)">
		<stop  offset="5.263158e-03" style="stop-color:#9E3A1D;stop-opacity:0.4"/>
		<stop  offset="1" style="stop-color:#9E3A1D;stop-opacity:0"/>
	</linearGradient>
	<path id="XMLID_61_" class="st5" d="M149.4,825.2c0-87.2,170.7,23.4,344.5,23.4s384.1-118.2,384.1-31S674.4,1015,500.7,1015
		S149.4,912.3,149.4,825.2z"/>
	
		<linearGradient id="XMLID_18_" gradientUnits="userSpaceOnUse" x1="506.1886" y1="-38.7551" x2="506.1886" y2="169.0294" gradientTransform="matrix(4.489700e-11 1 -1 4.489700e-11 1026.6101 -2.3899)">
		<stop  offset="5.263158e-03" style="stop-color:#9E3A1D;stop-opacity:0.4"/>
		<stop  offset="1" style="stop-color:#9E3A1D;stop-opacity:0"/>
	</linearGradient>
	<path id="XMLID_63_" class="st6" d="M826.8,859.9c-87.2,0,23.4-170.7,23.4-344.5s-118.8-367.7-31.6-367.7s198,187.1,198,360.9
		S914,859.9,826.8,859.9z"/>
	
		<linearGradient id="XMLID_19_" gradientUnits="userSpaceOnUse" x1="502.6101" y1="-660.7308" x2="502.6101" y2="-450.373" gradientTransform="matrix(-4.489700e-11 -1 1 -4.489700e-11 570.0789 1014.6101)">
		<stop  offset="0" style="stop-color:#FFFFFF;stop-opacity:0.4"/>
		<stop  offset="1" style="stop-color:#FFFFFF;stop-opacity:0"/>
	</linearGradient>
	<path id="XMLID_62_" class="st7" d="M200.5,147.7c87.2,0-23.4,170.7-23.4,344.5s118.2,384.1,31,384.1S11.3,701,7.4,512
		C3.9,338.3,113.3,147.7,200.5,147.7z"/>
	<g id="XMLID_39_" class="st10">
		<defs>
			
				<ellipse id="XMLID_36_" transform="matrix(0.8019 -0.5974 0.5974 0.8019 -204.724 406.2339)" class="st10" cx="510.3" cy="511.9" rx="502.8" ry="502.8"/>
		</defs>
		<clipPath id="XMLID_20_">
			<use xlink:href="#XMLID_36_"  style="overflow:visible;"/>
		</clipPath>
	</g>
	<g id="XMLID_41_">
		<linearGradient id="XMLID_21_" gradientUnits="userSpaceOnUse" x1="64.4989" y1="234.8705" x2="401.1502" y2="480.7042">
			<stop  offset="0" style="stop-color:#F4592D"/>
			<stop  offset="1" style="stop-color:#FFD900"/>
		</linearGradient>
		<path id="XMLID_7_" class="st9" d="M20.9,474.4c15.5-101.8,66.6-201.8,147-275.9c45.6-41.1,90.9-61.6,137.3-67.8
			c81.7-8,131.9,63.4,129.6,168.8c0.2,3.6,1.9,4.5,3.6,5.4c8.1-23.2,13-44.6,13.2-65.2c-0.1-117-75.3-177.7-169-155.4
			c39.7-9.8,77-7.1,110.5,10.7c27.1,17.9,46.5,42,61.9,77.7c10.4,33,14.3,66.1,10.8,108.9c-8.1,92-54.7,187.5-124.6,250
			c-28.9,25.9-56.8,42-84.7,58l0.2,3.6c22.7,1.8,44.7-7.1,69.5-21.4c89.7-55.3,157.3-174.1,178.5-286.6
			c-9.2,53.6-26.5,106.2-55,159.8c-25.9,44.6-52.4,82.1-90.3,117c-59.4,50.9-120.5,76.8-176.3,64.3C122.4,611,90.4,545.8,92.6,461
			c-0.2-3.6-0.5-7.1-3.6-5.4c-1.4,2.7-4.3,8-5.7,10.7C69,517.3,77.1,562.8,91,601.2c25.5,65.2,86.8,87.5,153.7,75
			c-39.7,9.8-77,7.1-110.5-10.7c-27.1-17.9-49.6-40.2-63.6-78.6c-14.7-49.1-19.9-100-0.2-165.2c24.9-83,69.1-166.1,136.9-212.5
			c20-13.4,38.7-24.1,60.4-36.6c3.1-1.8,2.9-5.4,1.2-6.2C159.4,170,46.5,333.3,20.9,474.4L20.9,474.4z"/>
		<linearGradient id="XMLID_22_" gradientUnits="userSpaceOnUse" x1="438.1351" y1="490.0881" x2="196.6566" y2="356.1772">
			<stop  offset="0" style="stop-color:#F64626"/>
			<stop  offset="1" style="stop-color:#FFD900"/>
		</linearGradient>
		<path id="XMLID_40_" style="fill:url(#XMLID_22_);" d="M86.7,460.9C98,387.2,135,314.8,193.2,261.1c33-29.7,65.9-44.6,99.4-49.1
			c59.2-5.8,95.5,45.9,93.8,122.2c0.2,2.6,1.4,3.2,2.6,3.9c5.8-16.8,9.4-32.3,9.6-47.2c-0.1-84.7-54.6-128.7-122.4-112.5
			c28.7-7.1,55.7-5.2,80,7.8c19.6,12.9,33.7,30.4,44.8,56.3c7.5,23.9,10.3,47.9,7.8,78.9c-5.9,66.6-39.6,135.8-90.2,181.1
			c-20.9,18.8-41.1,30.4-61.4,42l0.2,2.6c16.5,1.3,32.4-5.2,50.3-15.5c65-40.1,113.9-126.1,129.3-207.6
			c-6.6,38.8-19.2,77-39.9,115.8c-18.8,32.3-37.9,59.5-65.4,84.7c-43,36.9-87.3,55.6-127.7,46.6c-44-11-67.2-58.2-65.6-119.6
			c-0.2-2.6-0.4-5.2-2.6-3.9c-1,1.9-3.1,5.8-4.1,7.8c-10.3,36.9-4.5,69.8,5.6,97.7c18.5,47.2,62.9,63.4,111.3,54.3
			c-28.7,7.1-55.7,5.2-80-7.8c-19.6-12.9-35.9-29.1-46-56.9c-10.7-35.6-14.4-72.4-0.2-119.6c18-60.1,50.1-120.3,99.1-153.9
			c14.5-9.7,28-17.5,43.7-26.5c2.2-1.3,2.1-3.9,0.9-4.5C187.1,240.4,105.3,358.8,86.7,460.9L86.7,460.9z"/>
	</g>
	<g id="XMLID_11_">
		
			<linearGradient id="XMLID_23_" gradientUnits="userSpaceOnUse" x1="-316.9261" y1="9.5862" x2="-92.0354" y2="173.8087" gradientTransform="matrix(-0.9998 -2.148304e-02 2.148304e-02 -0.9998 625.9278 811.8477)">
			<stop  offset="0" style="stop-color:#F4592D"/>
			<stop  offset="1" style="stop-color:#FFD900"/>
		</linearGradient>
		<path id="XMLID_13_" class="st11" d="M975.6,649.7c-11.8,67.8-47.4,133.8-102.1,182.1c-31,26.8-61.6,39.8-92.7,43.3
			c-54.7,4.2-87.2-44.2-84.1-114.6c-0.1-2.4-1.2-3-2.3-3.6c-5.7,15.4-9.3,29.6-9.8,43.3c-1.6,78.1,47.8,119.8,110.6,106.2
			c-26.6,6-51.5,3.7-73.6-8.7c-17.8-12.3-30.5-28.7-40.2-52.8c-6.5-22.2-8.6-44.3-5.7-72.9c6.7-61.3,39.2-124.4,86.8-165.2
			c19.6-16.9,38.5-27.2,57.4-37.5l-0.1-2.4c-15.1-1.5-29.9,4.1-46.7,13.3c-60.7,35.7-107.6,114-123.3,188.8
			c6.9-35.6,19.2-70.6,39-105.9c18-29.4,36.2-54.1,62-76.8c40.4-33.1,81.6-49.5,118.6-40.4c40.4,11,60.8,55,58.1,111.6
			c0.1,2.4,0.2,4.8,2.3,3.6c1-1.8,3-5.3,4-7.1c10.2-33.8,5.5-64.3-3.3-90.2c-16.1-43.9-56.7-59.7-101.6-52.3
			c26.6-6,51.5-3.7,73.6,8.7c17.8,12.3,32.6,27.5,41.3,53.4c9.1,33,11.8,67.1-2.2,110.3c-17.8,55.1-48.5,109.9-94.5,140
			c-13.6,8.7-26.2,15.5-40.9,23.6c-2.1,1.1-2,3.5-0.9,4.2C878.7,851.1,956.4,743.6,975.6,649.7L975.6,649.7z"/>
		
			<linearGradient id="XMLID_24_" gradientUnits="userSpaceOnUse" x1="-52.9013" y1="188.0779" x2="-214.2144" y2="98.6225" gradientTransform="matrix(-0.9998 -2.148304e-02 2.148304e-02 -0.9998 625.9278 811.8477)">
			<stop  offset="0" style="stop-color:#F42C2D"/>
			<stop  offset="1" style="stop-color:#FFD900"/>
		</linearGradient>
		<path id="XMLID_12_" class="st12" d="M931.4,657.8c-8.6,49.1-34.3,96.9-74,131.9c-22.5,19.4-44.6,28.9-67.1,31.4
			c-39.6,3-63.2-32-60.9-83c-0.1-1.7-0.9-2.2-1.7-2.6c-4.1,11.1-6.8,21.5-7.1,31.4c-1.2,56.6,34.6,86.7,80.1,76.9
			c-19.3,4.3-37.3,2.7-53.3-6.3c-12.9-8.9-22.1-20.8-29.1-38.2c-4.7-16.1-6.2-32.1-4.1-52.8c4.9-44.4,28.4-90.1,62.9-119.6
			c14.2-12.2,27.9-19.7,41.6-27.2l-0.1-1.7c-11-1.1-21.7,3-33.8,9.6c-44,25.8-77.9,82.6-89.3,136.8c5-25.8,13.9-51.1,28.3-76.7
			c13-21.3,26.2-39.2,44.9-55.6c29.3-24,59.1-35.9,85.9-29.3c29.2,8,44,39.8,42.1,80.8c0.1,1.7,0.2,3.5,1.7,2.6
			c0.7-1.3,2.2-3.8,2.9-5.1c7.4-24.5,4-46.6-2.4-65.3c-11.7-31.8-41.1-43.2-73.6-37.9c19.3-4.3,37.3-2.7,53.3,6.3
			c12.9,8.9,23.6,20,29.9,38.7c6.6,23.9,8.6,48.6-1.6,79.9c-12.9,39.9-35.2,79.6-68.4,101.4c-9.8,6.3-19,11.3-29.6,17.1
			c-1.5,0.8-1.4,2.6-0.6,3C861.2,803.6,917.5,725.7,931.4,657.8L931.4,657.8z"/>
	</g>
</g>
</svg>
