<svg xmlns="http://www.w3.org/2000/svg" width="32" height="32" viewBox="0 0 32 32"><path fill="#444" d="M16 27.534c-5.323 0-9.641-1.44-9.641-3.214v-3.214c0-.279.14-.545.341-.803 1.075 1.384 4.813 2.41 9.301 2.41s8.226-1.026 9.301-2.41c.201.259.34.524.34.803v3.214c0 1.773-4.318 3.214-9.641 3.214zm0-6.428c-5.323 0-9.641-1.441-9.641-3.214v-3.214c0-.17.064-.336.151-.5.049-.103.113-.204.19-.304 1.075 1.383 4.813 2.41 9.301 2.41s8.226-1.027 9.301-2.41c.077.1.141.201.19.304.086.164.151.33.151.5v3.214c0 1.773-4.318 3.214-9.641 3.214zm0-6.427c-5.323 0-9.641-1.44-9.641-3.214V9.858 8.251c0-1.774 4.318-3.214 9.641-3.214s9.641 1.44 9.641 3.214v3.214c0 1.774-4.318 3.214-9.641 3.214zm0-8.034c-3.55 0-6.427.718-6.427 1.607S12.451 9.859 16 9.859c3.55 0 6.427-.718 6.427-1.607S19.549 6.645 16 6.645z"/></svg>