<?xml version="1.0" encoding="utf-8"?>
<!-- Svg Vector Icons : http://www.onlinewebfonts.com/icon -->
<!DOCTYPE svg PUBLIC "-//W3C//DTD SVG 1.1//EN" "http://www.w3.org/Graphics/SVG/1.1/DTD/svg11.dtd">
<svg version="1.1" xmlns="http://www.w3.org/2000/svg" xmlns:xlink="http://www.w3.org/1999/xlink" x="0px" y="0px" viewBox="0 0 1000 1000" enable-background="new 0 0 1000 1000" xml:space="preserve">
<metadata> Svg Vector Icons : http://www.onlinewebfonts.com/icon </metadata>
<g><path d="M438.7,408.1c270.6,0,459.4-68.6,459.4-153.1v-91.9C898.1,78.6,709.4,10,438.7,10C168.1,10,10,78.6,10,163.1V255C10,339.6,168.1,408.1,438.7,408.1z"/><path d="M383.2,774.6c-185.9-6.9-294.4-49.3-351.5-106.1C17.1,683,10,698.4,10,714.4v122.5C10,921.5,168.1,990,438.7,990c27.1,0,53.5-0.9,79.4-2.2C448.6,937.8,399,862.2,383.2,774.6z"/><path d="M377.6,713c0.3-81,29.1-155.2,77-213.1c-5.8,0-11.4,0.1-17.4,0.1c-219.4,0-343.1-45.1-405.6-107.2c-14.5,14.5-21.6,29.9-21.6,46v122.5C10,639.2,144.6,703.4,377.6,713z"/><path d="M730.1,608.7c-26.9,0-50.1,9.8-69.5,29.3c-19.4,19.6-31.3,45.1-35.7,76.8c-4.5,31.9,0.2,57.5,13.7,76.7c13.6,19.3,33.6,28.9,59.8,28.9c28.2,0,51.6-9.3,70.2-27.7c18.6-18.5,30.3-44.2,34.9-77.4c4.7-34,0.5-60.3-12.6-78.8C777.7,617.9,757.5,608.7,730.1,608.7z"/><path d="M714.4,438.8c-152.2,0-275.6,123.4-275.6,275.6c0,152.2,123.4,275.6,275.6,275.6C866.6,990,990,866.6,990,714.4C990,562.2,866.6,438.8,714.4,438.8z M840,711.2c-6,42.8-22.2,76.8-48.6,101.9c-26.5,25.1-58.9,37.6-97.2,37.6c-37.5,0-65.8-12.3-85-37c-19.2-24.7-26-56.7-20.5-96.3c5.9-42.6,22.2-76.5,48.7-101.7c26.6-25.2,59.5-37.8,99-37.8c36.7,0,64.5,12.3,83.4,36.9C838.8,639.7,845.5,671.7,840,711.2z"/></g>
</svg>