<svg xmlns="http://www.w3.org/2000/svg" viewBox="0 0 1000 1000" fill="#fff"><path d="M438.7 408.1c270.6 0 459.4-68.6 459.4-153.1v-91.9C898.1 78.6 709.4 10 438.7 10 168.1 10 10 78.6 10 163.1V255c0 84.6 158.1 153.1 428.7 153.1zM383.2 774.6c-185.9-6.9-294.4-49.3-351.5-106.1C17.1 683 10 698.4 10 714.4v122.5C10 921.5 168.1 990 438.7 990c27.1 0 53.5-.9 79.4-2.2-69.5-50-119.1-125.6-134.9-213.2zM377.6 713c.3-81 29.1-155.2 77-213.1-5.8 0-11.4.1-17.4.1-219.4 0-343.1-45.1-405.6-107.2-14.5 14.5-21.6 29.9-21.6 46v122.5c0 77.9 134.6 142.1 367.6 151.7zM730.1 608.7c-26.9 0-50.1 9.8-69.5 29.3-19.4 19.6-31.3 45.1-35.7 76.8-4.5 31.9.2 57.5 13.7 76.7 13.6 19.3 33.6 28.9 59.8 28.9 28.2 0 51.6-9.3 70.2-27.7 18.6-18.5 30.3-44.2 34.9-77.4 4.7-34 .5-60.3-12.6-78.8-13.2-18.6-33.4-27.8-60.8-27.8z"/><path d="M714.4 438.8c-152.2 0-275.6 123.4-275.6 275.6 0 152.2 123.4 275.6 275.6 275.6C866.6 990 990 866.6 990 714.4c0-152.2-123.4-275.6-275.6-275.6zM840 711.2c-6 42.8-22.2 76.8-48.6 101.9-26.5 25.1-58.9 37.6-97.2 37.6-37.5 0-65.8-12.3-85-37-19.2-24.7-26-56.7-20.5-96.3 5.9-42.6 22.2-76.5 48.7-101.7 26.6-25.2 59.5-37.8 99-37.8 36.7 0 64.5 12.3 83.4 36.9 19 24.9 25.7 56.9 20.2 96.4z"/></svg>