<?xml version="1.0" encoding="UTF-8" standalone="no"?>
<svg
   xmlns:dc="http://purl.org/dc/elements/1.1/"
   xmlns:cc="http://creativecommons.org/ns#"
   xmlns:rdf="http://www.w3.org/1999/02/22-rdf-syntax-ns#"
   xmlns:svg="http://www.w3.org/2000/svg"
   xmlns="http://www.w3.org/2000/svg"
   xmlns:sodipodi="http://sodipodi.sourceforge.net/DTD/sodipodi-0.dtd"
   xmlns:inkscape="http://www.inkscape.org/namespaces/inkscape"
   sodipodi:docname="logo.svg"
   inkscape:version="1.0beta2 (6465177, 2020-02-22)"
   id="svg8"
   version="1.1"
   viewBox="0 0 210 210"
   height="210mm"
   width="210mm">
  <defs
     id="defs2" />
  <sodipodi:namedview
     inkscape:window-maximized="1"
     inkscape:window-y="-8"
     inkscape:window-x="1912"
     inkscape:window-height="1027"
     inkscape:window-width="2560"
     showgrid="false"
     inkscape:document-rotation="0"
     inkscape:current-layer="layer1"
     inkscape:document-units="mm"
     inkscape:cy="560"
     inkscape:cx="1016.1027"
     inkscape:zoom="0.34085227"
     inkscape:pageshadow="2"
     inkscape:pageopacity="0.0"
     borderopacity="1.0"
     bordercolor="#666666"
     pagecolor="#ffffff"
     id="base" />
  <metadata
     id="metadata5">
    <rdf:RDF>
      <cc:Work
         rdf:about="">
        <dc:format>image/svg+xml</dc:format>
        <dc:type
           rdf:resource="http://purl.org/dc/dcmitype/StillImage" />
        <dc:title></dc:title>
      </cc:Work>
    </rdf:RDF>
  </metadata>
  <g
     id="layer1"
     inkscape:groupmode="layer"
     inkscape:label="Livello 1">
    <path
       d="m 180.08778,107.50931 a 72.966606,69.473518 0 0 1 -72.8574,69.47344 72.966606,69.473518 0 0 1 -73.075482,-69.26549 72.966606,69.473518 0 0 1 72.638672,-69.68077 72.966606,69.473518 0 0 1 73.29291,69.05692"
       sodipodi:arc-type="arc"
       sodipodi:open="true"
       sodipodi:end="6.2771988"
       sodipodi:start="0"
       sodipodi:ry="69.473518"
       sodipodi:rx="72.966606"
       sodipodi:cy="107.50931"
       sodipodi:cx="107.12118"
       sodipodi:type="arc"
       id="path833"
       style="fill:#e36929;stroke-width:0.264583" />
    <path
       transform="rotate(21.455477)"
       d="M 114.71945,65.023537 A 17.020103,21.734734 0 0 1 97.724821,86.758246 17.020103,21.734734 0 0 1 80.679321,65.088594 17.020103,21.734734 0 0 1 97.62293,43.289022 a 17.020103,21.734734 0 0 1 17.09622,21.6044"
       sodipodi:arc-type="arc"
       sodipodi:open="true"
       sodipodi:end="6.2771988"
       sodipodi:start="0"
       sodipodi:ry="21.734734"
       sodipodi:rx="17.020103"
       sodipodi:cy="65.023537"
       sodipodi:cx="97.699348"
       sodipodi:type="arc"
       id="path837"
       style="fill:#f8d163;stroke-width:0.264583" />
    <path
       transform="matrix(0.61426493,-0.78909986,0.78366492,0.62118378,0,0)"
       d="m 5.1281939,197.37967 a 17.471313,11.511373 0 0 1 -17.4451659,11.51136 17.471313,11.511373 0 0 1 -17.497383,-11.4769 17.471313,11.511373 0 0 1 17.392792,-11.54572 17.471313,11.511373 0 0 1 17.5494438,11.44235"
       sodipodi:arc-type="arc"
       sodipodi:open="true"
       sodipodi:end="6.2771988"
       sodipodi:start="0"
       sodipodi:ry="11.511373"
       sodipodi:rx="17.471313"
       sodipodi:cy="197.37967"
       sodipodi:cx="-12.34312"
       sodipodi:type="arc"
       id="path839"
       style="fill:#f8d163;stroke-width:0.212318" />
    <path
       d="M 72.978744,98.717255 A 9.1426954,10.561994 0 0 1 63.849731,109.27924 9.1426954,10.561994 0 0 1 54.693394,98.748869 9.1426954,10.561994 0 0 1 63.794999,88.155367 9.1426954,10.561994 0 0 1 72.97858,98.654026"
       sodipodi:arc-type="arc"
       sodipodi:open="true"
       sodipodi:end="6.2771988"
       sodipodi:start="0"
       sodipodi:ry="10.561994"
       sodipodi:rx="9.1426954"
       sodipodi:cy="98.717255"
       sodipodi:cx="63.836048"
       sodipodi:type="arc"
       id="path841"
       style="fill:#fbfcf7;stroke-width:0.264583" />
    <path
       d="m 155.65887,130.73247 a 6.2099242,6.9861641 0 0 1 -6.20063,6.98615 6.2099242,6.9861641 0 0 1 -6.21919,-6.96524 6.2099242,6.9861641 0 0 1 6.18201,-7.00701 6.2099242,6.9861641 0 0 1 6.2377,6.94428"
       sodipodi:arc-type="arc"
       sodipodi:open="true"
       sodipodi:end="6.2771988"
       sodipodi:start="0"
       sodipodi:ry="6.9861641"
       sodipodi:rx="6.2099242"
       sodipodi:cy="130.73247"
       sodipodi:cx="149.44894"
       sodipodi:type="arc"
       id="path843"
       style="fill:#fbfcf7;stroke-width:0.264583" />
  </g>
</svg>
